Coordinates
version=1
nRows=4
nColumns=107
inDegrees=yes

Units are S.I. units (second, meters, Newtons, ...)
If the header above contains a line with 'inDegrees', this indicates whether rotational values are in degrees (yes) or radians (no).

endheader
time	sternoclavicular_r2	sternoclavicular_r3	unrotscap_r3	unrotscap_r2	acromioclavicular_r2	acromioclavicular_r3	acromioclavicular_r1	unrothum_r1	unrothum_r3	unrothum_r2	elv_angle	shoulder_elv	shoulder1_r2	shoulder_rot	elbow_flexion	pro_sup	deviation	flexion	proximal_distal_r1	proximal_distal_r3	cmc_flexion	cmc_abduction	mp_flexion	ip_flexion	mcp2_flexion	mcp2_abduction	pm2_flexion	md2_flexion	mcp3_flexion	mcp3_abduction	pm3_flexion	md3_flexion	mcp4_flexion	mcp4_abduction	pm4_flexion	md4_flexion	mcp5_flexion	mcp5_abduction	pm5_flexion	md5_flexion	bicpt_tx	bicpt_ty	bicpt_tz	bicpt2_tx	bicpt2_ty	bicpt2_tz	ptpt_tx	ptpt_ty	ptpt_tz	FCUpt_tx	FCUpt_ty	FCUpt_tz	EDCpt_tx	EDCpt_ty	EDCpt_tz	APLpt_tx	APLpt_ty	APLpt_tz	FPLpt_tx	FPLpt_ty	FPLpt_tz	FPLpt2_tx	FPLpt2_ty	FPLpt2_tz	PEC1pt2_tx	PEC1pt2_ty	PEC1pt2_tz	PEC1pt3_tx	PEC1pt3_ty	PEC1pt3_tz	PEC2pt2_tx	PEC2pt2_ty	PEC2pt2_tz	PEC2pt3_tx	PEC2pt3_ty	PEC2pt3_tz	PEC3pt2_tx	PEC3pt2_ty	PEC3pt2_tz	PEC3pt3_tx	PEC3pt3_ty	PEC3pt3_tz	DELT2pt2a_tx	DELT2pt2a_ty	DELT2pt2a_tz	DELT2pt2_tx	DELT2pt2_ty	DELT2pt2_tz	LAT1pt2_tx	LAT1pt2_ty	LAT1pt2_tz	LAT1pt3_tx	LAT1pt3_ty	LAT1pt3_tz	LAT2pt2_tx	LAT2pt2_ty	LAT2pt2_tz	LAT2pt3_tx	LAT2pt3_ty	LAT2pt3_tz	LAT3pt2_tx	LAT3pt2_ty	LAT3pt2_tz	LAT3pt3_tx	LAT3pt3_ty	LAT3pt3_tz
      0.46666667	     -0.32234004	      0.13652803	     -0.13652803	      0.32234004	     -0.06526730	      0.52746737	      0.23709295	     -0.23709295	     -0.52746737	      0.06526730	     99.44922332	     76.31687040	     -1.73571639	    -23.90842602	     29.05421868	     38.82083308	      0.11139861	     -0.08365367	      0.14102621	     -0.04182683	     33.49502750	     -3.50003957	     -9.05997429	      1.74011092	    -13.68251196	     11.58364064	     21.20539324	     -9.09247242	    -20.65332658	     -0.28867701	     11.31560286	     13.21978756	    -19.43004732	      0.31490780	     -0.48399516	     19.97909172	   -385.17518177	    -14.07019627	     -8.18685221	      5.03288163	      0.00086102	     -0.03093006	     -0.00483639	      0.01657061	     -0.01809272	     -0.00759493	      0.00468158	     -0.06675477	     -0.00317723	      0.00766174	     -0.18351940	     -0.00037752	     -0.00465849	      0.00133249	      0.00015451	      0.00007973	      0.00003189	      0.00015946	      0.00010205	      0.00030616	      0.00017221	     -0.00001206	     -0.00021409	     -0.00025691	      0.00250150	      0.00877645	      0.00610535	     -0.00818287	      0.01975761	     -0.01874005	      0.00250150	      0.00877645	      0.00610535	      0.00055118	      0.01831606	     -0.00962441	      0.00395361	      0.00488047	      0.01598149	      0.00000000	      0.00778937	      0.00000000	     -0.00716531	     -0.03311307	     -0.00642275	      0.01592946	     -0.00055490	     -0.00477200	     -0.00089036	      0.01492420	     -0.00610535	      0.00245910	      0.02153833	     -0.01780728	     -0.00597816	      0.01293148	     -0.00546938	     -0.01246510	      0.02730450	     -0.03056917	     -0.02340386	      0.01445782	     -0.00733491	     -0.01551778	      0.03154433	     -0.03820087
      0.50000000	     -0.32652285	      0.13829967	     -0.13829967	      0.32652285	     -0.06611423	      0.53431199	      0.24016956	     -0.24016956	     -0.53431199	      0.06611423	     98.55049287	     77.30718622	     -1.72003058	    -18.82016918	     28.65417102	     33.05392738	      0.11191536	     -0.13524928	      0.14163320	     -0.06762464	     32.52629440	     -3.44219700	     -6.80019458	     -1.70512328	    -13.64968865	     11.51476034	     22.02749562	    -10.34787043	    -21.04974629	     -0.25337390	     10.29197037	     13.88154042	    -19.69107840	      0.37768396	     -0.84993534	     22.74351009	   -385.71513190	    -14.09456877	     -6.65706118	      4.97357989	      0.00084779	     -0.03088421	     -0.00482900	      0.01650624	     -0.01798405	     -0.00817771	      0.00510769	     -0.06647924	     -0.00271267	      0.00708836	     -0.18363271	     -0.00031894	     -0.00396646	      0.00110513	      0.00018321	      0.00012307	      0.00004923	      0.00024613	      0.00015752	      0.00047257	      0.00026582	     -0.00001135	     -0.00022540	     -0.00027048	      0.00253396	      0.00889033	      0.00618458	     -0.00828906	      0.02001399	     -0.01898323	      0.00253396	      0.00889033	      0.00618458	      0.00055833	      0.01855374	     -0.00974930	      0.00399086	      0.00494380	      0.01607161	      0.00000000	      0.00799432	      0.00000000	     -0.00725829	     -0.03354276	     -0.00659286	      0.01308612	     -0.00039598	     -0.00289971	     -0.00090192	      0.01511786	     -0.00618458	      0.00249101	      0.02181782	     -0.01803836	     -0.00605573	      0.01309928	     -0.00554035	     -0.01262685	      0.02765882	     -0.03096585	     -0.02370756	      0.01464543	     -0.00743009	     -0.01571914	      0.03195366	     -0.03869657
      0.53333333	     -0.32748507	      0.13870722	     -0.13870722	      0.32748507	     -0.06630906	      0.53588653	      0.24087731	     -0.24087731	     -0.53588653	      0.06630906	     98.35402547	     77.53500051	     -1.71660158	    -17.85301709	     28.74894732	     32.60413022	      0.12341507	     -0.10842355	      0.15502518	     -0.05421177	     33.26663418	     -3.18123327	     -9.53375786	      1.98436980	    -13.89151960	     11.55998505	     21.42531509	     -9.03199500	    -21.95027076	     -0.06126568	     11.32770561	     12.45147369	    -19.69796631	      0.58662972	     -0.30915829	     19.34727973	   -384.65948015	    -14.07109551	     -8.40991410	      5.03885505	      0.00085093	     -0.03089507	     -0.00483075	      0.01649803	     -0.01800979	     -0.00822121	      0.00514092	     -0.06645775	     -0.00267644	      0.00704407	     -0.18364115	     -0.00031332	     -0.00391249	      0.00108783	      0.00018469	      0.00010109	      0.00004044	      0.00020218	      0.00012939	      0.00038818	      0.00021835	     -0.00001191	     -0.00021685	     -0.00026022	      0.00254143	      0.00891653	      0.00620281	     -0.00831348	      0.02007297	     -0.01903917	      0.00254143	      0.00891653	      0.00620281	      0.00055998	      0.01860842	     -0.00977803	      0.00399938	      0.00495837	      0.01609202	      0.00000000	      0.00804185	      0.00000000	     -0.00727968	     -0.03364160	     -0.00663231	      0.01250651	     -0.00036693	     -0.00258988	     -0.00090458	      0.01516241	     -0.00620281	      0.00249835	      0.02188212	     -0.01809152	     -0.00607358	      0.01313789	     -0.00555668	     -0.01266406	      0.02774032	     -0.03105710	     -0.02377742	      0.01468859	     -0.00745198	     -0.01576546	      0.03204783	     -0.03881061
      0.56666667	     -0.32743431	      0.13868572	     -0.13868572	      0.32743431	     -0.06629879	      0.53580348	      0.24083998	     -0.24083998	     -0.53580348	      0.06629879	     98.36395228	     77.52298426	     -1.71677483	    -17.84546045	     28.75288127	     32.60674140	      0.12338439	     -0.10840416	      0.15498927	     -0.05420208	     33.26611526	     -3.18091836	     -9.53410168	      1.98447055	    -13.88966371	     11.55997491	     21.42580714	     -9.03148077	    -21.95165993	     -0.06075011	     11.32729733	     12.45151918	    -19.69719427	      0.58684432	     -0.30840090	     19.34741775	   -384.65781060	    -14.07094458	     -8.40907981	      5.03894082	      0.00085106	     -0.03089552	     -0.00483082	      0.01649807	     -0.01801086	     -0.00822095	      0.00514073	     -0.06645787	     -0.00267665	      0.00704433	     -0.18364110	     -0.00031335	     -0.00391280	      0.00108793	      0.00018468	      0.00010107	      0.00004043	      0.00020214	      0.00012937	      0.00038811	      0.00021831	     -0.00001191	     -0.00021686	     -0.00026023	      0.00254103	      0.00891515	      0.00620184	     -0.00831219	      0.02006986	     -0.01903622	      0.00254103	      0.00891515	      0.00620184	      0.00055989	      0.01860553	     -0.00977652	      0.00399893	      0.00495760	      0.01609094	      0.00000000	      0.00803934	      0.00000000	     -0.00727855	     -0.03363639	     -0.00663022	      0.01250192	     -0.00036671	     -0.00258753	     -0.00090444	      0.01516006	     -0.00620184	      0.00249796	      0.02187873	     -0.01808871	     -0.00607264	      0.01313585	     -0.00555582	     -0.01266210	      0.02773602	     -0.03105229	     -0.02377374	      0.01468631	     -0.00745083	     -0.01576302	      0.03204286	     -0.03880459
